<svg width="2500" height="2500" viewBox="0 0 2500 2500" fill="none" xmlns="http://www.w3.org/2000/svg">
<path d="M541.914 280.81C828.516 496.709 1136.84 934.404 1250 1169.29V1789.68C1250 1776.47 1244.92 1791.4 1233.98 1823.54C1174.92 1997.61 944.219 2676.94 416.68 2133.86C138.906 1847.92 267.5 1561.98 773.125 1475.65C483.867 1525.03 158.672 1443.43 69.4531 1123.51C43.75 1031.47 0 464.599 0 388.037C0 4.52121 335.117 125.068 541.914 280.81ZM1958.09 280.81C1671.48 496.709 1363.16 934.404 1250 1169.29V1789.68C1250 1776.47 1255.08 1791.4 1266.02 1823.54C1325.08 1997.61 1555.78 2676.94 2083.32 2133.86C2361.09 1847.92 2232.5 1561.98 1726.87 1475.65C2016.13 1525.03 2341.33 1443.43 2430.55 1123.51C2456.25 1031.47 2500 464.599 2500 388.037C2500 4.52121 2164.92 125.068 1958.09 280.81Z" fill="black"/>
</svg>
