<svg width="2500" height="2500" viewBox="0 0 2500 2500" fill="none" xmlns="http://www.w3.org/2000/svg">
<path d="M1250 35.5762C562.407 35.5762 4.83887 593.047 4.83887 1280.74C4.83887 1830.9 361.616 2297.64 856.362 2462.29C918.589 2473.81 941.44 2435.27 941.44 2402.38C941.44 2372.7 940.278 2274.6 939.751 2170.56C593.335 2245.88 520.239 2023.64 520.239 2023.64C463.599 1879.72 381.987 1841.46 381.987 1841.46C269.019 1764.17 390.503 1765.75 390.503 1765.75C515.542 1774.54 581.382 1894.07 581.382 1894.07C692.437 2084.43 872.671 2029.39 943.726 1997.59C954.897 1917.1 987.173 1862.18 1022.78 1831.08C746.216 1799.59 455.474 1692.82 455.474 1215.71C455.474 1079.78 504.116 968.691 583.774 881.494C570.845 850.127 528.228 723.486 595.835 551.973C595.835 551.973 700.396 518.506 938.345 679.609C1037.66 652.012 1144.18 638.184 1250 637.715C1355.83 638.184 1462.43 652.012 1561.94 679.609C1799.6 518.506 1904.02 551.973 1904.02 551.973C1971.79 723.486 1929.16 850.127 1916.23 881.494C1996.06 968.691 2044.37 1079.77 2044.37 1215.71C2044.37 1693.96 1753.08 1799.27 1475.82 1830.09C1520.47 1868.73 1560.27 1944.51 1560.27 2060.67C1560.27 2227.28 1558.82 2361.37 1558.82 2402.38C1558.82 2435.52 1581.24 2474.35 1644.36 2462.12C2138.83 2297.29 2495.16 1830.71 2495.16 1280.74C2495.16 593.047 1937.67 35.5762 1250 35.5762Z" fill="black"/>
<path d="M471.196 1809.35C468.461 1815.53 458.715 1817.38 449.858 1813.14C440.825 1809.08 435.747 1800.64 438.676 1794.43C441.362 1788.07 451.108 1786.29 460.122 1790.57C469.174 1794.62 474.331 1803.13 471.196 1809.35ZM532.446 1863.99C526.508 1869.5 514.897 1866.94 507.016 1858.24C498.872 1849.56 497.348 1837.96 503.374 1832.36C509.497 1826.87 520.756 1829.43 528.92 1838.12C537.065 1846.9 538.647 1858.44 532.436 1864M574.467 1933.92C566.831 1939.22 554.35 1934.25 546.645 1923.17C539.018 1912.11 539.018 1898.83 546.811 1893.51C554.545 1888.18 566.831 1892.97 574.643 1903.96C582.26 1915.21 582.26 1928.5 574.458 1933.93M645.522 2014.9C638.696 2022.42 624.165 2020.41 613.52 2010.14C602.641 2000.1 599.604 1985.85 606.45 1978.32C613.354 1970.78 627.973 1972.9 638.696 1983.09C649.506 1993.11 652.797 2007.46 645.522 2014.9ZM737.358 2042.25C734.36 2051.99 720.356 2056.43 706.254 2052.29C692.172 2048.02 682.954 2036.59 685.795 2026.74C688.725 2016.92 702.788 2012.3 716.997 2016.74C731.059 2020.99 740.288 2032.32 737.358 2042.25ZM841.889 2053.84C842.241 2064.11 830.278 2072.63 815.473 2072.81C800.581 2073.13 788.54 2064.82 788.383 2054.73C788.383 2044.36 800.073 2035.92 814.956 2035.67C829.76 2035.38 841.889 2043.63 841.889 2053.84ZM944.565 2049.9C946.342 2059.92 936.049 2070.21 921.352 2072.95C906.899 2075.59 893.52 2069.4 891.674 2059.47C889.877 2049.2 900.366 2038.92 914.79 2036.25C929.516 2033.69 942.69 2039.72 944.565 2049.9Z" fill="black"/>
</svg>
